HIERARCHY
ROOT Hips
{
	OFFSET 0.00 86.18 0.00
	CHANNELS 6 Xposition Yposition Zposition Yrotation Xrotation Zrotation
	JOINT RightUpLeg
	{
		OFFSET -9.25 0.00 0.00
		CHANNELS 6 Xposition Yposition Zposition Yrotation Xrotation Zrotation
		JOINT RightLeg
		{
			OFFSET 0.00 -42.00 0.00
			CHANNELS 6 Xposition Yposition Zposition Yrotation Xrotation Zrotation
			JOINT RightFoot
			{
				OFFSET 0.00 -42.00 0.00
				CHANNELS 6 Xposition Yposition Zposition Yrotation Xrotation Zrotation
				End Site
				{
					OFFSET 0 -1.14 11.36
				}
			}
		}
	}
	JOINT LeftUpLeg
	{
		OFFSET 9.25 0.00 0.00
		CHANNELS 6 Xposition Yposition Zposition Yrotation Xrotation Zrotation
		JOINT LeftLeg
		{
			OFFSET 0.00 -42.00 0.00
			CHANNELS 6 Xposition Yposition Zposition Yrotation Xrotation Zrotation
			JOINT LeftFoot
			{
				OFFSET 0.00 -42.00 0.00
				CHANNELS 6 Xposition Yposition Zposition Yrotation Xrotation Zrotation
				End Site
				{
					OFFSET 0 -1.14 11.36
				}
			}
		}
	}
	JOINT Spine
	{
		OFFSET 0.00 10.46 0.00
		CHANNELS 6 Xposition Yposition Zposition Yrotation Xrotation Zrotation
		JOINT Spine1
		{
			OFFSET 0.00 9.75 0.00
			CHANNELS 6 Xposition Yposition Zposition Yrotation Xrotation Zrotation
			JOINT Spine2
			{
				OFFSET 0.00 10.15 0.00
				CHANNELS 6 Xposition Yposition Zposition Yrotation Xrotation Zrotation
				JOINT Spine3
				{
					OFFSET 0.00 9.75 0.00
					CHANNELS 6 Xposition Yposition Zposition Yrotation Xrotation Zrotation
			 		JOINT Neck
					{
						OFFSET 0.00 10.42 0.00
						CHANNELS 6 Xposition Yposition Zposition Yrotation Xrotation Zrotation
						JOINT Head
						{
							OFFSET 0.00 9.50 0.00
							CHANNELS 6 Xposition Yposition Zposition Yrotation Xrotation Zrotation
							End Site
							{
								OFFSET 0 16.00 0
							}
						}    
					} 
					JOINT RightShoulder
	 					{
						OFFSET -3.20 6.94 0.00
						CHANNELS 6 Xposition Yposition Zposition Yrotation Xrotation Zrotation
						JOINT RightArm
						{
							OFFSET -16.00 0.00 0.00
							CHANNELS 6 Xposition Yposition Zposition Yrotation Xrotation Zrotation
							JOINT RightForeArm
							{
								OFFSET -26.50 0.00 0.00
								CHANNELS 6 Xposition Yposition Zposition Yrotation Xrotation Zrotation
								JOINT RightHand
								{
									OFFSET -26.00 0.00 0.00
									CHANNELS 6 Xposition Yposition Zposition Yrotation Xrotation Zrotation
									End Site
									{
										OFFSET -17.50 0 0
									}
								}
							}
						}	
					}
					JOINT LeftShoulder
					{
						OFFSET 3.20 6.94 0.00
						CHANNELS 6 Xposition Yposition Zposition Yrotation Xrotation Zrotation
						JOINT LeftArm
						{
							OFFSET 16.00 0.00 0.00
							CHANNELS 6 Xposition Yposition Zposition Yrotation Xrotation Zrotation
							JOINT LeftForeArm
							{
								OFFSET 26.50 0.00 0.00
								CHANNELS 6 Xposition Yposition Zposition Yrotation Xrotation Zrotation
								JOINT LeftHand
								{
									OFFSET 26.00 0.00 0.00
									CHANNELS 6 Xposition Yposition Zposition Yrotation Xrotation Zrotation
									End Site
									{
										OFFSET 17.50 0 0
									}
								}
							}
						}
					}     			
				}
			}
		} 
	} 
}
MOTION
Frames: 12
Frame Time: 0.010
47.36 90.53 -278.27 152.50 -11.63 -1.12 -9.09 -0.18 0.31 -7.73 -1.33 7.74 0.00 -42.18 -0.12 -13.73 4.42 -2.26 -0.78 -41.40 0.29 -15.58 -0.22 -1.55 9.30 0.26 -0.60 2.46 6.33 14.92 0.13 -42.23 0.03 15.96 54.02 10.89 -1.44 -40.84 0.47 -4.59 2.00 -8.23 0.18 10.51 0.18 -6.78 7.98 4.06 0.26 9.90 -0.38 -1.64 2.09 1.10 -0.06 10.17 -0.24 -2.59 3.57 1.79 0.07 9.78 -0.34 -0.58 -0.23 -0.19 0.48 10.48 -1.03 -0.57 -0.23 -0.19 0.20 9.57 -0.71 -10.10 -4.88 -2.99 -3.07 7.10 -0.32 2.27 1.44 -4.85 -15.92 0.18 0.29 25.68 -5.69 79.67 -26.48 0.06 -0.10 12.84 -6.48 3.18 -25.95 -0.08 -0.01 2.62 -8.62 -5.07 3.27 6.85 -0.11 4.74 12.73 3.31 16.23 -0.47 0.20 -23.38 -38.01 -79.03 26.17 0.13 -0.44 10.42 -19.22 9.21 25.04 0.05 -0.59 -7.04 -23.55 17.14 
48.37 90.87 -279.24 152.41 -11.61 -1.13 -9.13 -0.30 0.05 -12.05 0.41 7.97 0.00 -42.14 -0.13 -12.53 3.44 -2.50 -0.68 -41.46 0.25 -12.14 -0.10 -1.05 9.32 0.38 -0.33 1.97 4.88 14.32 0.13 -42.20 0.03 14.29 55.74 10.53 -1.06 -41.23 0.44 -4.69 0.59 -8.82 -0.02 10.50 0.28 -8.02 8.47 4.00 0.22 9.90 -0.34 -1.95 2.23 1.10 -0.03 10.17 -0.22 -3.07 3.83 1.79 0.07 9.77 -0.33 -0.61 -0.28 -0.18 0.44 10.46 -1.07 -0.60 -0.28 -0.18 0.14 9.58 -0.75 -10.62 -5.88 -2.78 -3.07 7.08 -0.30 2.43 1.73 -5.00 -15.92 0.15 0.30 26.21 -6.14 79.14 -26.48 0.08 -0.07 13.87 -5.57 4.10 -25.97 -0.03 -0.05 2.87 -7.08 -1.13 3.26 6.89 -0.18 2.38 12.52 2.05 16.09 -0.32 0.20 -19.66 -33.74 -75.57 26.20 0.01 -0.26 15.41 -22.39 8.70 25.19 0.08 -0.35 -5.60 -27.21 18.04 
49.38 91.23 -280.17 152.33 -11.59 -1.13 -9.26 -0.47 -0.17 -15.65 2.34 8.32 -0.09 -42.11 0.03 -11.94 2.18 -2.99 -0.54 -41.50 0.24 -8.87 0.03 -0.48 9.35 0.52 -0.06 1.10 3.50 13.63 0.13 -42.20 0.06 12.48 57.32 9.60 -0.75 -41.50 0.46 -4.25 -0.83 -8.75 -0.18 10.50 0.36 -9.33 9.03 3.81 0.26 9.91 -0.30 -2.27 2.40 1.08 0.03 10.17 -0.20 -3.59 4.13 1.74 0.09 9.77 -0.31 -0.62 -0.34 -0.17 0.44 10.45 -1.08 -0.61 -0.34 -0.17 0.11 9.59 -0.77 -10.77 -7.00 -2.52 -3.06 7.06 -0.28 2.73 1.82 -4.94 -15.91 0.12 0.29 26.85 -6.50 78.40 -26.48 0.08 -0.03 14.73 -5.06 5.22 -25.99 0.03 -0.07 3.66 -5.49 2.30 3.27 6.96 -0.22 0.22 11.16 0.72 16.09 -0.17 0.17 -15.38 -28.21 -73.07 26.27 0.03 -0.11 19.58 -24.57 7.52 25.44 -0.17 -0.01 -4.33 -28.24 20.37 
50.31 91.61 -281.04 150.55 -10.94 0.28 -9.30 -0.48 -0.03 -16.57 3.15 7.34 -0.10 -42.08 0.23 -11.93 1.07 -2.93 -0.46 -41.54 0.21 -5.90 0.14 0.34 9.40 0.48 -0.04 1.32 1.63 11.88 0.15 -42.19 0.09 11.08 58.62 8.28 -0.35 -42.07 0.47 -4.99 -5.04 -6.81 -0.18 10.51 0.30 -9.72 9.23 2.99 0.28 9.91 -0.26 -2.37 2.45 0.89 0.08 10.17 -0.17 -3.78 4.22 1.41 0.12 9.77 -0.28 -0.61 -0.40 -0.16 0.47 10.45 -1.06 -0.61 -0.41 -0.16 0.10 9.61 -0.79 -10.63 -8.28 -2.18 -3.03 7.06 -0.25 3.10 1.66 -4.73 -15.88 0.10 0.25 27.57 -6.72 77.41 -26.48 0.06 -0.01 15.52 -4.70 6.50 -26.02 0.09 -0.09 4.66 -3.55 4.95 3.30 7.02 -0.24 -1.35 9.61 -0.24 15.85 -0.09 0.07 -8.84 -23.02 -70.89 26.32 -0.14 -0.05 21.73 -24.26 5.45 25.72 -0.47 0.33 -3.35 -28.46 23.63 
51.11 91.96 -281.78 148.60 -10.51 1.78 -9.15 -0.45 0.00 -16.15 3.19 5.78 0.03 -42.07 0.24 -12.25 0.95 -2.49 -0.39 -41.57 0.17 -3.95 0.14 1.09 9.45 0.44 -0.05 1.18 0.06 10.22 0.17 -42.18 0.11 10.48 59.59 6.86 -0.41 -42.15 0.50 -3.69 -6.14 -6.62 -0.23 10.51 0.21 -10.08 9.58 2.07 0.19 9.90 -0.30 -2.47 2.55 0.67 0.09 10.17 -0.16 -3.96 4.36 1.05 0.14 9.77 -0.23 -0.58 -0.48 -0.15 0.49 10.44 -1.01 -0.58 -0.48 -0.15 0.09 9.62 -0.79 -10.12 -9.62 -1.85 -3.01 7.05 -0.21 3.47 1.40 -4.46 -15.88 0.08 0.22 28.29 -6.83 76.45 -26.49 0.07 -0.02 16.35 -4.30 7.75 -26.04 0.13 -0.06 5.29 -1.36 6.29 3.34 7.05 -0.29 -2.28 9.04 -0.43 15.64 -0.02 0.00 -2.46 -18.26 -69.51 26.28 -0.24 -0.07 20.78 -24.52 3.64 25.84 -0.47 0.35 -3.27 -28.98 24.99 
51.93 92.25 -282.44 148.43 -10.47 1.84 -9.19 -0.59 -0.33 -17.41 3.66 5.83 -0.07 -42.08 0.21 -11.66 1.05 -2.65 -0.35 -41.59 0.13 -3.05 -0.03 1.68 9.45 0.56 0.18 -1.30 -1.16 10.04 0.11 -42.18 0.09 10.69 60.33 5.38 -0.58 -42.15 0.58 -2.72 -7.00 -6.33 -0.45 10.51 0.21 -11.45 10.13 1.85 0.14 9.89 -0.26 -2.81 2.72 0.64 0.11 10.17 -0.13 -4.50 4.67 0.99 0.17 9.76 -0.19 -0.54 -0.55 -0.14 0.51 10.43 -0.96 -0.53 -0.56 -0.14 0.10 9.63 -0.77 -9.26 -10.96 -1.64 -2.98 7.05 -0.18 3.87 1.23 -4.17 -15.90 0.07 0.19 28.96 -6.80 75.49 -26.50 0.09 -0.02 17.30 -3.75 8.84 -26.04 0.13 -0.02 5.71 0.47 6.37 3.38 7.08 -0.35 -2.11 8.58 0.02 15.79 0.16 -0.04 3.95 -13.43 -70.49 26.23 0.03 -0.01 17.50 -23.63 4.11 25.78 -0.19 0.21 -3.93 -30.28 23.35 
52.73 92.48 -283.07 148.20 -10.42 1.88 -9.15 -0.67 -0.58 -19.35 4.21 5.57 -0.04 -42.10 0.19 -9.86 1.26 -2.58 -0.30 -41.61 0.10 -2.69 -0.33 2.21 9.45 0.65 0.41 -4.08 -2.23 9.95 0.06 -42.20 0.08 11.98 60.63 4.42 -0.70 -42.06 0.68 -2.19 -7.69 -5.91 -0.64 10.51 0.17 -12.74 10.61 1.69 0.08 9.89 -0.26 -3.13 2.87 0.63 0.11 10.17 -0.11 -5.00 4.95 0.96 0.20 9.76 -0.14 -0.48 -0.62 -0.13 0.53 10.43 -0.87 -0.48 -0.63 -0.13 0.11 9.64 -0.73 -8.25 -12.22 -1.51 -2.95 7.05 -0.11 4.05 1.32 -4.05 -15.91 0.08 0.18 29.55 -6.80 74.54 -26.51 0.09 -0.03 18.48 -2.93 9.81 -26.02 0.09 -0.00 5.81 1.29 5.44 3.41 7.08 -0.27 0.22 8.12 1.24 16.03 0.29 -0.07 7.49 -8.84 -71.87 26.22 0.18 0.04 14.13 -22.73 5.99 25.71 -0.04 0.07 -3.86 -31.21 19.18 
53.69 92.62 -283.73 145.78 -9.95 3.21 -9.13 -0.55 -0.47 -19.48 4.31 4.52 0.02 -42.11 0.19 -7.61 1.44 -2.43 -0.25 -41.63 0.11 -2.73 -0.80 2.65 9.45 0.55 0.32 -4.76 -3.55 8.97 0.03 -42.21 0.07 14.03 60.40 3.97 -0.59 -42.01 0.66 -2.02 -8.24 -5.44 -0.58 10.52 0.16 -12.75 10.75 1.07 0.05 9.88 -0.22 -3.14 2.91 0.48 0.11 10.17 -0.08 -5.04 4.99 0.71 0.20 9.76 -0.10 -0.43 -0.68 -0.12 0.47 10.41 -0.78 -0.42 -0.69 -0.12 0.10 9.64 -0.69 -7.25 -13.28 -1.41 -2.95 7.04 -0.06 4.18 1.69 -4.17 -15.94 0.08 0.17 29.92 -6.84 73.69 -26.52 0.08 -0.03 19.83 -1.83 10.55 -26.01 0.03 0.00 5.71 1.18 4.00 3.42 7.05 -0.15 3.86 8.58 3.07 16.12 0.28 -0.10 7.47 -5.30 -72.65 26.22 0.08 0.02 11.74 -23.56 7.36 25.73 -0.06 -0.06 -3.30 -30.94 14.65 
54.68 92.70 -284.46 143.22 -9.34 4.11 -9.10 -0.44 -0.40 -19.23 4.40 3.90 0.06 -42.11 0.18 -5.86 1.63 -2.27 -0.23 -41.66 0.13 -2.47 -1.42 2.92 9.46 0.45 0.28 -5.37 -4.76 8.36 0.05 -42.19 0.07 16.77 59.53 4.11 -0.47 -42.01 0.48 -2.21 -8.67 -5.01 -0.53 10.52 0.14 -12.48 10.79 0.80 -0.03 9.89 -0.24 -3.07 2.92 0.41 0.05 10.17 -0.08 -4.95 5.01 0.60 0.12 9.76 -0.09 -0.39 -0.73 -0.11 0.28 10.40 -0.74 -0.38 -0.74 -0.11 0.04 9.63 -0.66 -6.49 -14.12 -1.30 -3.03 7.03 -0.05 4.33 2.26 -4.48 -15.96 0.08 0.14 30.00 -6.79 72.95 -26.51 0.08 -0.01 21.15 -0.72 11.14 -25.99 0.01 0.02 5.78 0.63 2.25 3.35 6.99 -0.05 8.00 9.84 5.21 16.07 0.20 -0.12 5.76 -2.93 -72.92 26.23 -0.02 -0.03 10.49 -24.28 6.91 25.80 -0.08 -0.14 -3.69 -30.83 12.40 
55.75 92.70 -285.21 136.05 -7.67 4.33 -9.05 -0.48 0.34 -14.06 4.25 4.83 0.08 -42.11 0.17 -4.88 1.71 -2.23 -0.20 -41.69 0.17 -1.84 -2.08 3.10 9.48 0.51 -0.44 -1.49 -6.43 9.03 0.14 -42.29 0.14 20.17 58.59 4.88 -0.35 -41.99 0.39 -2.73 -9.41 -4.65 -0.59 10.51 0.07 -8.95 10.62 1.25 -0.09 9.88 -0.21 -2.19 2.82 0.46 0.00 10.17 -0.06 -3.53 4.80 0.71 0.06 9.76 -0.06 -0.37 -0.76 -0.11 0.16 10.39 -0.65 -0.36 -0.77 -0.11 0.01 9.63 -0.63 -6.18 -14.70 -1.19 -3.08 7.03 -0.03 4.13 2.94 -4.90 -15.99 0.09 0.10 29.86 -6.70 72.55 -26.51 0.09 0.00 22.42 0.15 11.40 -25.98 -0.03 0.01 6.00 0.20 0.59 3.31 6.96 0.05 11.84 11.21 7.21 15.99 0.12 -0.11 4.42 -1.13 -72.82 26.25 -0.05 -0.04 9.66 -23.60 5.56 25.87 -0.11 -0.10 -4.57 -31.93 12.26 
56.83 92.68 -285.94 133.24 -7.12 4.15 -9.02 -0.45 0.30 -13.44 4.81 5.29 0.11 -42.11 0.13 -4.53 1.55 -2.36 -0.17 -41.72 0.18 -0.43 -2.61 3.23 9.44 0.48 -0.39 -2.13 -7.18 9.57 0.15 -42.26 0.13 22.87 56.96 4.99 -0.23 -41.96 0.18 -3.13 -9.71 -4.45 -0.59 10.51 0.09 -8.30 10.72 1.60 -0.15 9.87 -0.17 -2.02 2.85 0.54 -0.06 10.17 -0.04 -3.25 4.85 0.84 -0.01 9.76 -0.02 -0.33 -0.80 -0.11 -0.00 10.38 -0.55 -0.33 -0.81 -0.11 -0.03 9.62 -0.58 -5.50 -15.34 -1.39 -3.17 7.02 -0.00 4.24 3.55 -5.62 -16.01 0.09 0.05 29.91 -6.35 72.35 -26.51 0.08 0.02 23.55 0.23 11.28 -25.97 -0.06 -0.02 6.52 0.09 -0.76 3.23 6.95 0.11 15.45 12.23 8.82 15.92 0.06 -0.05 3.63 1.14 -72.81 26.30 -0.07 0.06 8.22 -22.69 4.21 25.93 -0.14 0.04 -5.00 -34.39 13.02 
57.94 92.64 -286.65 126.05 -5.73 4.02 -8.95 -0.48 0.93 -8.72 5.05 6.25 0.11 -42.11 0.12 -4.22 1.23 -2.58 -0.15 -41.74 0.19 1.38 -3.08 3.26 9.42 0.52 -1.03 1.93 -8.44 10.22 0.23 -42.22 0.13 24.86 55.04 5.15 -0.15 -41.93 0.04 -3.31 -10.02 -4.41 -0.64 10.50 0.08 -4.79 10.59 2.16 -0.26 9.84 -0.09 -1.15 2.75 0.62 -0.13 10.17 0.00 -1.82 4.63 1.00 -0.10 9.76 0.04 -0.31 -0.93 -0.14 -0.20 10.37 -0.43 -0.31 -0.92 -0.14 -0.10 9.60 -0.51 -4.94 -15.76 -1.85 -3.28 7.00 0.06 3.99 4.22 -6.56 -16.04 0.09 0.02 30.17 -5.75 72.50 -26.50 0.06 0.03 24.50 -0.27 10.77 -25.96 -0.09 -0.04 7.22 0.23 -1.65 3.06 7.19 0.06 16.92 12.46 8.30 15.91 0.21 -0.12 4.50 4.67 -71.51 26.35 -0.09 0.18 5.66 -22.65 3.48 25.96 -0.16 0.13 -4.95 -37.94 13.88 
